# xmcd CD database file
#
# Track frame offsets:
#	182
#	9965
#	22742
#	32487
#	44905
#	59645
#	71677
#	85307
#	99805
#	109622
#	120682
#	132942
#	145182
#	155622
#
# Disc length: 2242 seconds
#
# Revision: 0
# Processed by: cddbd v1.5.2PL0 Copyright (c) Steve Scherf et al.
# Submitted via: CDex 1.70beta2
#
DISCID=b508c00e
DTITLE=Zdeněk Kašpar a Naley band - 101. mejdan
DYEAR=1900
DGENRE=Country
TTITLE0=Práce
TTITLE1=Nalejvej
TTITLE2=Kyselý víno
TTITLE3=Dálniční
TTITLE4=Poslouchám, jak klidně dýcháš
TTITLE5=Bakersfield
TTITLE6=Honky tonky blues
TTITLE7=V závětří
TTITLE8=Mejdan v zátoce
TTITLE9=Já si tě najdu
TTITLE10=Levý nohy
TTITLE11=Náměstí
TTITLE12=Neříkej mi
TTITLE13=Já jdu dál
EXTD=
EXTT0=
EXTT1=
EXTT2=
EXTT3=
EXTT4=
EXTT5=
EXTT6=
EXTT7=
EXTT8=
EXTT9=
EXTT10=
EXTT11=
EXTT12=
EXTT13=
PLAYORDER=
